<svg width="368" height="298" viewBox="0 0 368 298" fill="none" xmlns="http://www.w3.org/2000/svg">
<g clip-path="url(#clip0_3342_9683)">
<path d="M107.296 29.8589L38.9776 98.1606C38.3915 98.7465 38.0444 99.5295 38.004 100.357C37.9635 101.185 38.2326 101.998 38.7588 102.638L182.038 277.318C182.277 277.61 182.578 277.845 182.92 278.007C183.261 278.168 183.634 278.252 184.011 278.252C184.389 278.252 184.762 278.168 185.103 278.007C185.445 277.845 185.746 277.61 185.985 277.318L329.264 102.638C329.788 101.997 330.056 101.184 330.015 100.357C329.974 99.5294 329.627 98.7468 329.042 98.1606L260.737 29.8589C260.191 29.3119 259.543 28.8779 258.829 28.5817C258.115 28.2856 257.35 28.133 256.577 28.1328H111.463C110.689 28.1325 109.923 28.2848 109.208 28.581C108.493 28.8771 107.843 29.3114 107.296 29.8589Z" fill="#FFE74D" stroke="white" stroke-width="2" stroke-miterlimit="10"/>
<path d="M111.097 228.944C111.459 223.666 111.823 218.418 112.188 213.2C121.06 210.077 129.546 205.948 137.481 200.896C136.612 206.216 135.74 211.606 134.862 217.066C127.401 221.885 119.431 225.868 111.097 228.944V228.944Z" fill="white" stroke="black" stroke-width="1.2" stroke-linecap="round" stroke-linejoin="round"/>
<path d="M234.726 189.609L238.212 193.458C238.348 193.606 238.517 193.719 238.706 193.788C238.894 193.856 239.097 193.878 239.296 193.851L244.443 193.167C244.672 193.136 244.905 193.171 245.116 193.265C245.326 193.36 245.506 193.512 245.635 193.704C245.763 193.895 245.836 194.119 245.844 194.35C245.852 194.581 245.796 194.809 245.681 195.009L243.097 199.521C242.997 199.695 242.941 199.891 242.934 200.092C242.927 200.293 242.968 200.492 243.056 200.673L245.301 205.356C245.401 205.564 245.441 205.795 245.416 206.025C245.391 206.254 245.302 206.472 245.16 206.653C245.018 206.835 244.828 206.973 244.611 207.053C244.394 207.132 244.16 207.149 243.934 207.102L238.851 206.039C238.655 205.997 238.452 206.004 238.259 206.059C238.066 206.114 237.889 206.215 237.744 206.354L233.984 209.936C233.817 210.095 233.609 210.205 233.383 210.252C233.156 210.3 232.922 210.283 232.705 210.203C232.488 210.124 232.297 209.985 232.155 209.803C232.013 209.621 231.924 209.403 231.899 209.174L231.342 204.009C231.32 203.809 231.25 203.618 231.138 203.452C231.026 203.285 230.876 203.148 230.7 203.052L226.13 200.588C225.927 200.477 225.758 200.313 225.644 200.112C225.529 199.911 225.473 199.682 225.482 199.451C225.49 199.22 225.563 198.996 225.692 198.805C225.821 198.613 226.001 198.461 226.212 198.366L230.949 196.24C231.132 196.158 231.292 196.032 231.416 195.874C231.54 195.717 231.623 195.531 231.66 195.334L232.593 190.228C232.633 190 232.736 189.788 232.891 189.616C233.045 189.444 233.245 189.319 233.467 189.254C233.689 189.19 233.925 189.189 234.147 189.252C234.37 189.314 234.57 189.438 234.726 189.609V189.609Z" fill="white" stroke="black" stroke-width="1.2" stroke-linecap="round" stroke-linejoin="round"/>
<path d="M122.168 245.637L99.592 256.393L98.7341 227.139L119.519 216.31L122.168 245.637Z" fill="white" stroke="black" stroke-width="1.2" stroke-linecap="round" stroke-linejoin="round"/>
<path d="M103.749 232.122L115.158 226.305" stroke="black" stroke-width="1.2" stroke-linecap="round" stroke-linejoin="round"/>
<path d="M103.937 236.514L115.489 230.7" stroke="black" stroke-width="1.2" stroke-linecap="round" stroke-linejoin="round"/>
<path d="M104.128 241.012L115.831 235.205" stroke="black" stroke-width="1.2" stroke-linecap="round" stroke-linejoin="round"/>
<path d="M104.326 245.623L116.18 239.826" stroke="black" stroke-width="1.2" stroke-linecap="round" stroke-linejoin="round"/>
<path d="M139.781 227.785L133.721 223.717L129.554 229.941C123.923 234.321 119.848 240.395 117.933 247.267L113.76 253.488L119.82 257.555C123.921 260.317 131.745 255.894 137.252 247.674C141.391 241.522 143.062 234.962 141.904 230.905C141.593 229.644 140.84 228.537 139.781 227.785V227.785Z" fill="#FFE74D" stroke="black" stroke-width="1.2" stroke-linecap="round" stroke-linejoin="round"/>
<path d="M121.05 252.89L127.315 257.094" stroke="black" stroke-width="1.2" stroke-miterlimit="10"/>
<path d="M125.9 249.315L132.166 253.519" stroke="black" stroke-width="1.2" stroke-miterlimit="10"/>
<path d="M128.392 246.607L134.657 250.815" stroke="black" stroke-width="1.2" stroke-miterlimit="10"/>
<path d="M130.272 244.396L136.537 248.6" stroke="black" stroke-width="1.2" stroke-miterlimit="10"/>
<path d="M131.183 243.603C136.7 235.384 137.835 226.48 133.717 223.717C129.6 220.953 121.79 225.375 116.273 233.595C110.756 241.814 109.621 250.717 113.739 253.481C117.856 256.245 125.666 251.822 131.183 243.603Z" fill="#FFE74D" stroke="black" stroke-width="1.2" stroke-linecap="round" stroke-linejoin="round"/>
<path d="M128.573 242.251C132.398 236.582 133.592 230.701 131.24 229.114C128.888 227.527 123.881 230.836 120.057 236.505C116.232 242.174 115.038 248.055 117.39 249.642C119.742 251.229 124.749 247.92 128.573 242.251Z" stroke="black" stroke-width="1.2" stroke-miterlimit="10"/>
<path d="M121.15 236.87C124.492 231.89 128.748 228.728 131.328 229.097C131.154 228.792 130.913 228.53 130.624 228.331C128.269 226.752 123.279 230.071 119.471 235.742C115.664 241.412 114.488 247.291 116.839 248.87C117.134 249.056 117.467 249.172 117.814 249.212C116.494 246.98 117.81 241.846 121.15 236.87Z" fill="black"/>
<path d="M163.433 269.548H154.215L150.212 209.119C150.155 208.253 150.303 207.386 150.645 206.589C150.987 205.792 151.513 205.087 152.18 204.532C152.847 203.978 153.636 203.589 154.482 203.398C155.328 203.208 156.208 203.22 157.048 203.435C158.2 203.726 159.226 204.384 159.973 205.308C160.719 206.233 161.145 207.374 161.188 208.562L163.433 269.548Z" fill="white"/>
<path d="M155.264 285.556H146.665L138.612 201.083C138.543 200.357 138.666 199.625 138.968 198.96C139.269 198.296 139.74 197.722 140.332 197.296C140.925 196.87 141.619 196.606 142.344 196.531C143.07 196.456 143.803 196.573 144.47 196.869C146 197.55 147.315 198.635 148.273 200.009C149.23 201.382 149.795 202.991 149.905 204.662L155.264 285.556Z" fill="white"/>
<path d="M162.637 270.069L163.188 263.811L161.273 211.925C161.244 211.13 161.386 210.338 161.692 209.604C161.997 208.869 162.458 208.209 163.042 207.669C163.627 207.13 164.321 206.723 165.078 206.477C165.834 206.231 166.635 206.152 167.425 206.244C168.762 206.4 169.996 207.038 170.894 208.04C171.793 209.041 172.294 210.337 172.303 211.682L172.755 273.72L162.637 270.069Z" fill="white"/>
<path d="M181.849 289.907H173.031L172.467 213.221C172.462 212.489 172.601 211.764 172.877 211.086C173.152 210.408 173.56 209.792 174.074 209.272C174.589 208.752 175.202 208.339 175.877 208.056C176.552 207.774 177.276 207.627 178.008 207.625V207.625C178.748 207.624 179.481 207.771 180.164 208.058C180.847 208.344 181.465 208.764 181.984 209.293C182.502 209.822 182.909 210.449 183.181 211.138C183.453 211.826 183.585 212.563 183.569 213.303L181.849 289.907Z" fill="white"/>
<path d="M178.021 207.625H177.943L177.895 289.9H181.849L183.558 213.296C183.574 212.558 183.442 211.825 183.171 211.139C182.9 210.452 182.495 209.827 181.979 209.299C181.464 208.771 180.848 208.351 180.169 208.064C179.489 207.777 178.759 207.628 178.021 207.625V207.625Z" fill="#FFE74D"/>
<path d="M202.24 261.204L192.212 266.94L195.378 206.648C195.441 205.448 195.883 204.3 196.641 203.368C197.4 202.436 198.434 201.769 199.596 201.463C200.473 201.232 201.393 201.215 202.279 201.413C203.164 201.611 203.989 202.019 204.685 202.601C205.38 203.184 205.926 203.926 206.275 204.763C206.625 205.6 206.769 206.509 206.695 207.414L202.24 261.204Z" fill="white"/>
<path d="M213.839 245.037L202.611 257.032L207.078 203.1C207.226 201.306 207.842 199.582 208.865 198.101C209.887 196.619 211.28 195.432 212.905 194.657C213.601 194.326 214.373 194.186 215.141 194.253C215.909 194.32 216.645 194.592 217.272 195.039C217.9 195.486 218.397 196.094 218.711 196.798C219.024 197.502 219.144 198.277 219.058 199.043L213.839 245.037Z" fill="white"/>
<path d="M198.288 264.333L202.757 201.548C201.734 201.216 200.636 201.187 199.596 201.463C198.434 201.769 197.4 202.436 196.642 203.368C195.884 204.3 195.441 205.448 195.378 206.648L192.185 267.462L198.288 264.333Z" fill="#FFE74D"/>
<path d="M210.468 247.645L216.009 194.435C214.983 194.113 213.873 194.195 212.905 194.664C211.28 195.439 209.887 196.626 208.864 198.107C207.842 199.589 207.226 201.313 207.077 203.107L202.792 252.86L210.468 247.645Z" fill="#FFE74D"/>
<path d="M163.529 272.155L161.188 208.562C161.145 207.374 160.719 206.233 159.973 205.308C159.226 204.384 158.2 203.726 157.048 203.435C156.208 203.22 155.328 203.208 154.482 203.398C153.636 203.589 152.847 203.978 152.18 204.532C151.513 205.087 150.987 205.792 150.645 206.589C150.303 207.386 150.155 208.253 150.212 209.119L154.491 273.72" stroke="black" stroke-width="1.2" stroke-linecap="round" stroke-linejoin="round"/>
<path d="M155.264 285.556H146.665L138.612 201.083C138.543 200.357 138.666 199.625 138.968 198.96C139.269 198.296 139.74 197.722 140.332 197.296C140.925 196.87 141.619 196.606 142.344 196.531C143.07 196.456 143.803 196.573 144.47 196.869V196.869C146 197.55 147.315 198.635 148.273 200.009C149.23 201.382 149.795 202.991 149.905 204.662L155.264 285.556Z" stroke="black" stroke-width="1.2" stroke-linecap="round" stroke-linejoin="round"/>
<path d="M163.342 267.983L161.273 211.925C161.244 211.13 161.386 210.338 161.692 209.604C161.997 208.869 162.458 208.209 163.042 207.669C163.627 207.13 164.321 206.723 165.078 206.477C165.834 206.231 166.635 206.152 167.425 206.244C168.762 206.4 169.996 207.038 170.894 208.04C171.793 209.041 172.294 210.337 172.303 211.682L172.736 271.112" stroke="black" stroke-width="1.2" stroke-linecap="round" stroke-linejoin="round"/>
<path d="M182.123 289.336L172.867 289.073L172.31 213.166C172.286 210.09 174.945 207.629 178.021 207.622C178.762 207.621 179.495 207.768 180.178 208.054C180.861 208.34 181.479 208.76 181.997 209.289C182.516 209.818 182.923 210.446 183.195 211.134C183.467 211.823 183.599 212.559 183.583 213.299L182.123 289.336Z" stroke="black" stroke-width="1.2" stroke-linecap="round" stroke-linejoin="round"/>
<path d="M191.013 289.336H182.126L183.559 212.045C183.585 210.662 184.11 209.335 185.038 208.308C185.966 207.282 187.233 206.625 188.607 206.46C189.441 206.358 190.288 206.44 191.087 206.7C191.886 206.96 192.619 207.392 193.233 207.965C193.848 208.538 194.33 209.239 194.645 210.018C194.96 210.798 195.1 211.636 195.057 212.476L191.013 289.336Z" fill="white"/>
<path d="M189.109 206.429C188.941 206.431 188.774 206.441 188.607 206.46C187.233 206.625 185.966 207.282 185.038 208.308C184.11 209.334 183.585 210.661 183.558 212.045L182.123 289.336H186.255L189.109 206.429Z" fill="#FFE74D"/>
<path d="M191.013 289.336H182.126L183.559 212.045C183.585 210.662 184.11 209.335 185.038 208.308C185.966 207.282 187.233 206.625 188.607 206.46C189.441 206.358 190.288 206.44 191.087 206.7C191.886 206.96 192.619 207.392 193.233 207.965C193.848 208.538 194.33 209.239 194.645 210.018C194.96 210.798 195.1 211.636 195.057 212.476L191.013 289.336Z" stroke="black" stroke-width="1.2" stroke-linecap="round" stroke-linejoin="round"/>
<path d="M202.153 262.247L206.695 207.414C206.769 206.509 206.625 205.6 206.275 204.763C205.926 203.926 205.38 203.184 204.685 202.601C203.989 202.019 203.164 201.611 202.279 201.413C201.393 201.215 200.473 201.232 199.595 201.463C198.434 201.769 197.399 202.436 196.641 203.368C195.883 204.3 195.441 205.448 195.378 206.648L192.212 266.94" stroke="black" stroke-width="1.2" stroke-linecap="round" stroke-linejoin="round"/>
<path d="M213.543 247.645L219.058 199.043C219.144 198.277 219.024 197.502 218.71 196.798C218.397 196.094 217.9 195.486 217.272 195.039C216.645 194.592 215.909 194.32 215.141 194.253C214.373 194.186 213.601 194.326 212.905 194.657C211.28 195.432 209.887 196.619 208.865 198.101C207.842 199.582 207.226 201.306 207.078 203.1L202.524 258.075" stroke="black" stroke-width="1.2" stroke-linecap="round" stroke-linejoin="round"/>
<path d="M213.593 247.298L220.493 186.458L139.603 186.875L137.159 186.441L146.575 285.193" stroke="black" stroke-width="1.2" stroke-linecap="round" stroke-linejoin="round"/>
<path d="M177.895 161.859C160.323 161.859 145.335 167.693 139.46 175.893L136.804 175.572V183.58C136.804 195.577 155.203 205.301 177.895 205.301C189.595 205.301 197.791 198.513 205.273 194.364C212.304 190.464 218.983 189.391 218.983 183.58C218.983 171.583 200.587 161.859 177.895 161.859Z" fill="white" stroke="black" stroke-width="1.2" stroke-linecap="round" stroke-linejoin="round"/>
<path d="M177.895 197.293C200.589 197.293 218.986 187.568 218.986 175.571C218.986 163.575 200.589 153.85 177.895 153.85C155.201 153.85 136.804 163.575 136.804 175.571C136.804 187.568 155.201 197.293 177.895 197.293Z" fill="#FFE74D" stroke="black" stroke-width="1.2" stroke-linecap="round" stroke-linejoin="round"/>
<path d="M223.152 165.83L177.232 141.415C176.09 140.814 173.916 141.282 173.916 141.282C173.592 141.388 126.82 161.24 126.82 161.24L130.921 164.774L172.72 192.959L178.872 197.279L180.414 201.914L178.599 208.493L179.095 211.036L224.711 186.406C226.42 185.357 227.726 183.364 228.409 180.965C230.105 175.035 227.757 168.284 223.152 165.83Z" fill="white"/>
<path d="M224.311 163.045L183.097 172.721L167.09 169.265L168.738 162.402L192.551 145.616L224.311 163.045Z" fill="#FFE74D"/>
<path d="M179.094 211.047L224.711 186.417C226.42 185.367 227.726 183.375 228.409 180.975C228.891 179.257 229.055 177.465 228.895 175.688L180.192 201.265L180.414 201.924L178.599 208.504L179.094 211.047Z" fill="#FFE74D"/>
<path d="M223.152 165.83L177.232 141.415C176.09 140.814 173.916 141.282 173.916 141.282C173.592 141.388 126.82 161.24 126.82 161.24L130.921 164.774L172.72 192.959L178.872 197.279L180.414 201.914L178.599 208.493L179.095 211.036L224.711 186.406C226.42 185.357 227.726 183.364 228.409 180.965C230.105 175.035 227.757 168.284 223.152 165.83Z" stroke="black" stroke-width="1.2" stroke-linecap="round" stroke-linejoin="round"/>
<path d="M177.474 189.011L130.279 161.202C129.117 160.519 127.397 161.014 127.397 161.014C122.4 162.607 119.762 169.593 121.505 176.617C122.896 182.236 127.264 185.757 131.263 184.479C133.792 183.672 135.676 180.616 135.334 176.388L171.476 197.289C171.377 197.546 169.839 198.274 169.216 200.707C168.14 204.925 169.791 209.662 173.031 211.303C177.081 213.371 181.514 210.787 182.943 205.53C184.645 199.207 182.212 191.817 177.474 189.011Z" fill="white"/>
<path d="M172.378 201.832C171.913 203.541 172.611 205.499 173.94 206.179C175.598 207.027 177.413 205.968 177.994 203.814C178.722 201.124 177.628 198.082 175.553 197.023C172.959 195.697 170.122 197.365 169.216 200.718C168.082 204.922 169.791 209.673 173.031 211.313C177.081 213.381 181.514 210.797 182.943 205.54C184.652 199.19 182.222 191.8 177.474 188.994L130.279 161.202C129.117 160.519 127.397 161.014 127.397 161.014C122.4 162.607 119.762 169.593 121.505 176.617C122.896 182.236 127.264 185.757 131.263 184.479C134.459 183.453 136.147 178.986 135.023 174.491C134.131 170.896 131.335 168.643 128.778 169.46C126.727 170.113 125.651 172.974 126.365 175.848C126.936 178.152 128.724 179.608 130.361 179.071C131.67 178.654 132.36 176.822 131.906 174.97" stroke="black" stroke-width="1.2" stroke-linecap="round" stroke-linejoin="round"/>
<path d="M182.038 277.318C182.277 277.61 182.578 277.845 182.92 278.007C183.261 278.168 183.634 278.252 184.012 278.252C184.389 278.252 184.762 278.168 185.103 278.007C185.445 277.845 185.746 277.61 185.985 277.318L238.128 213.748" stroke="white" stroke-width="2" stroke-miterlimit="10"/>
<path d="M135.44 176.453L171.476 197.293" stroke="black" stroke-width="1.2" stroke-linecap="round" stroke-linejoin="round"/>
<path d="M178.654 189.845L224.311 166.767" stroke="black" stroke-width="1.2" stroke-linecap="round" stroke-linejoin="round"/>
<path d="M172.498 159.531C166.465 163.342 165.405 166.729 165.833 167.912C166.404 169.498 172.624 169.498 181.829 163.848C182.248 162.328 182.671 160.805 183.097 159.278L172.498 159.531Z" fill="black" stroke="black" stroke-width="1.2" stroke-linecap="round" stroke-linejoin="round"/>
<path d="M179.543 165.15C173.513 168.958 172.454 172.349 172.878 173.528C173.418 175.028 181.125 174.553 189.732 169.73C190.296 169.419 190.754 168.945 191.047 168.371C191.339 167.796 191.453 167.147 191.372 166.507C191.229 165.441 190.822 164.593 190.142 164.894L179.543 165.15Z" fill="black" stroke="black" stroke-width="1.2" stroke-linecap="round" stroke-linejoin="round"/>
<path d="M193.129 108.176C193.318 106.909 193.5 105.625 193.676 104.324C188.142 107.29 171.561 105.643 164.944 96.7664C165.354 105.537 166.011 114.704 166.974 124.23C168.287 137.188 170.023 149.41 172.026 160.84C173.886 163.807 179.238 162.614 179.994 162.364C180.957 167.433 191.211 167.433 191.792 163.807C192.261 160.279 196.181 129.764 196.919 110.486C194.954 110.271 193.331 109.57 193.129 108.176Z" fill="black" stroke="black" stroke-width="1.2" stroke-linecap="round" stroke-linejoin="round"/>
<path d="M210.126 56.4066C207.847 51.6214 201.947 44.3206 193.99 41.0598C187.041 40.2976 180.52 39.5081 173.571 38.7458C171.602 39.4773 160.545 42.8474 158.005 52.076C155.333 61.7763 155.821 85.4971 161.564 99.1999C162.64 100.721 163.956 101.227 165.074 101.251L164.954 96.7697" stroke="black" stroke-width="1.2" stroke-linecap="round" stroke-linejoin="round"/>
<path d="M175.184 38.9236C171.392 47.9187 171.009 57.988 174.108 67.2451C176.777 63.7724 189.331 50.1209 192.425 46.4569C193.973 44.618 195.624 42.6629 193.99 41.0735C192.356 39.4842 189.711 36.7395 188.894 36.3943L174.265 35.1331L175.184 38.9236Z" fill="white" stroke="black" stroke-width="1.2" stroke-linecap="round" stroke-linejoin="round"/>
<path d="M177.119 49.2903C177.12 50.9252 177.205 52.5589 177.375 54.1849C176.692 55.2239 176.021 56.3234 175.362 57.4832C174.402 59.1717 173.568 60.8124 172.823 62.4051C173.15 64.0436 173.579 65.6601 174.108 67.245C175.306 65.6841 176.559 64.0993 177.867 62.4906C177.906 61.03 177.983 59.5238 178.096 57.972C178.192 56.7039 178.315 55.4735 178.438 54.2772C178.927 53.1116 179.498 51.8846 180.168 50.5823C180.923 49.1331 181.696 47.824 182.454 46.6516L177.351 44.3923C177.19 46.0199 177.112 47.6547 177.119 49.2903V49.2903Z" fill="black"/>
<path d="M193.057 26.5948C192.91 29.1685 191.563 36.4694 193.99 41.0597C194.745 42.485 193.696 42.4577 192.472 43.507C186.214 48.8801 173.738 51.1804 175.543 41.6818V38.3253L187.66 17.2568L193.057 26.5948Z" fill="#FFE74D"/>
<path d="M193.057 26.5948C191.752 38.3595 194.212 41.675 194.212 41.675C188.86 48.5109 173.79 52.2707 175.543 41.675V38.3185L187.66 17.2568L193.057 26.5948Z" stroke="black" stroke-width="1.2" stroke-linecap="round" stroke-linejoin="round"/>
<path d="M187.66 34.0905C185.609 37.1086 179.587 43.2575 174.159 41.3742C168.82 39.5217 165.812 28.0714 170.088 13.0801L177.31 10.4346L187.66 13.8526L193.129 18.3575V22.401L187.66 34.0905Z" fill="#FFE74D"/>
<path d="M172.464 12.4443L172.139 12.3281L170.088 13.0767C165.812 28.068 168.82 39.5182 174.159 41.3708C168.519 38.2262 171.958 15.1104 172.464 12.4443Z" fill="white"/>
<path d="M175.543 31.78C175.643 31.8245 177.273 32.5422 178.671 31.5886C179.248 31.1823 179.668 30.5897 179.86 29.9104" stroke="black" stroke-width="1.2" stroke-linecap="round" stroke-linejoin="round"/>
<path d="M172.986 1.5C171.766 2.06739 166.151 7.40971 169.674 13.463C174.32 21.4269 187.034 12.294 186.939 23.2589C189.967 21.485 192.459 24.1168 192.934 29.09C193.846 27.5656 199.179 18.3678 194.578 10.9405C188.894 2.70313 181.59 9.68267 176.534 4.1216C176.178 4.689 175.949 5.32699 175.864 5.99147C175.778 6.65596 175.838 7.33111 176.039 7.97026C172.986 6.6099 173.072 2.75098 172.986 1.5Z" fill="black" stroke="black" stroke-width="1.2" stroke-linecap="round" stroke-linejoin="round"/>
<path d="M170.092 13.0769C165.816 28.0682 168.824 39.5185 174.162 41.371C179.59 43.2544 185.626 37.1054 187.664 34.0873" stroke="black" stroke-width="1.2" stroke-linecap="round" stroke-linejoin="round"/>
<path d="M186.635 23.6761C187.66 22.1414 189.027 21.1605 189.974 21.4749C191.376 21.9432 191.84 25.0775 189.708 27.9486" fill="#FFE74D"/>
<path d="M186.635 23.6761C187.66 22.1414 189.027 21.1605 189.974 21.4749C191.376 21.9432 191.84 25.0775 189.708 27.9486" stroke="black" stroke-width="1.2" stroke-linecap="round" stroke-linejoin="round"/>
<path d="M172.987 24.1067C169.418 24.9919 167.077 26.4275 167.21 27.3948C167.344 28.3621 169.784 29.032 172.987 29.0799" fill="#FFE74D"/>
<path d="M172.987 29.0799C169.784 29.032 167.337 28.3245 167.21 27.3948C167.084 26.4651 169.384 24.6809 172.987 24.1067C172.036 24.3665 170.201 25.6721 170.095 26.8411C169.979 28.198 171.387 29.261 172.987 29.0799Z" fill="white"/>
<path d="M172.986 24.1067C169.418 24.9919 166.995 26.0789 167.21 27.3948C167.364 28.3177 169.784 29.032 172.986 29.0799" stroke="black" stroke-width="1.2" stroke-linecap="round" stroke-linejoin="round"/>
<path d="M163.293 55.8052C161.876 69.4678 162.436 83.2633 164.954 96.7664" stroke="black" stroke-width="1.2" stroke-linecap="round" stroke-linejoin="round"/>
<path d="M175.622 114.721L180.004 162.364C180.94 168.835 191.399 167.105 192.913 164.073" stroke="#FFE74D" stroke-width="1.2" stroke-linecap="round" stroke-linejoin="round"/>
<path d="M161.563 99.1895C161.526 101.24 159.595 109.703 165.928 112.39" stroke="black" stroke-width="1.2" stroke-linecap="round" stroke-linejoin="round"/>
<path d="M171.042 160.173C172.573 163.109 176.76 163.328 180.004 162.364" stroke="#FFE74D" stroke-width="1.2" stroke-linecap="round" stroke-linejoin="round"/>
<path d="M218.719 140.462L213.839 115.719C213.462 114.369 212.581 113.215 211.378 112.496C211.149 112.402 210.894 112.393 210.66 112.472L180.534 124.725L188.672 155.597L218.197 142.085C218.689 141.846 218.87 141.19 218.719 140.462Z" fill="#FFE74D" stroke="black" stroke-width="1.2" stroke-linecap="round" stroke-linejoin="round"/>
<path d="M180.048 125.525L180.657 150.087C180.667 150.58 180.807 151.061 181.064 151.481C181.322 151.901 181.686 152.246 182.119 152.479L187.882 155.58C188.029 155.657 188.195 155.692 188.361 155.68C188.527 155.667 188.686 155.608 188.82 155.509C188.953 155.41 189.056 155.275 189.116 155.12C189.177 154.965 189.192 154.796 189.161 154.633L183.945 128.178C183.8 127.444 183.492 126.752 183.043 126.155C182.593 125.557 182.015 125.068 181.35 124.725V124.725C181.214 124.655 181.061 124.62 180.908 124.626C180.754 124.632 180.604 124.677 180.473 124.757C180.342 124.838 180.234 124.951 180.16 125.085C180.085 125.22 180.047 125.371 180.048 125.525Z" fill="#FFE74D" stroke="black" stroke-width="1.2" stroke-linecap="round" stroke-linejoin="round"/>
<path d="M213.849 115.924C213.681 113.409 211.733 112.035 210.653 112.462L180.527 124.715C181.231 124.483 181.966 124.958 182.578 125.638C183.336 126.486 187.705 134.005 189.588 136.918C191.065 139.146 193.44 139.31 195.532 138.415L211.596 131.439C212.548 131.025 213.348 130.326 213.886 129.44C214.425 128.553 214.676 127.521 214.604 126.486L213.849 115.924Z" fill="#FFE74D" stroke="black" stroke-width="1.2" stroke-linecap="round" stroke-linejoin="round"/>
<path d="M206.117 137.847L203.318 139.081C203.201 139.132 203.075 139.156 202.948 139.153C202.82 139.15 202.695 139.118 202.581 139.061C202.468 139.004 202.368 138.923 202.289 138.823C202.21 138.723 202.154 138.607 202.125 138.483L200.69 132.279C200.643 132.081 200.668 131.873 200.76 131.692C200.852 131.51 201.005 131.367 201.192 131.288L204.244 129.986C204.363 129.935 204.492 129.912 204.621 129.918C204.75 129.924 204.877 129.959 204.991 130.02C205.105 130.081 205.203 130.166 205.28 130.271C205.357 130.375 205.409 130.494 205.434 130.621L206.62 136.893C206.656 137.086 206.627 137.285 206.535 137.458C206.444 137.631 206.297 137.768 206.117 137.847V137.847Z" fill="white" stroke="black" stroke-width="1.2" stroke-linecap="round" stroke-linejoin="round"/>
<path d="M193.207 108.48C192.391 111.285 192.335 114.256 193.047 117.09" stroke="black" stroke-width="1.2" stroke-linecap="round" stroke-linejoin="round"/>
<path d="M193.867 118.918H193.888L198.085 116.7L197.258 112.971L192.814 115.538H192.797C192.53 115.726 192.315 115.978 192.172 116.272C192.029 116.565 191.963 116.89 191.98 117.216C191.98 118.241 192.592 119.052 193.348 119.052C193.517 119.051 193.684 119.009 193.833 118.929V118.929L193.867 118.918Z" fill="#FFE74D"/>
<path d="M200.648 105.68L203.933 109.409C204.499 112.187 204.492 115.05 203.913 117.825C203.057 119.134 201.828 120.156 200.385 120.761C198.444 121.571 196.386 121.393 195.474 120.665C194.592 120.077 194.349 117.267 194.356 114.947C193.125 115.661 192.22 114.861 193.238 112.858L194.171 107.851" fill="#FFE74D"/>
<path d="M203.947 109.409C204.463 112.236 204.726 114.072 204.097 116.857C203.68 117.883 201.944 118.002 199.876 118.864C197.934 119.67 197.661 122.141 195.487 120.665C194.834 120.077 195.449 118.696 194.762 115.934C194.762 115.934 194.308 113.829 192.657 114.929" stroke="black" stroke-width="1.2" stroke-linecap="round" stroke-linejoin="round"/>
<path d="M196.424 68.8582C196.325 74.2245 196.082 79.8368 195.645 85.6782C195.057 93.6421 194.185 101.155 193.139 108.175C193.611 111.638 202.921 110.835 204.466 108.903C207.232 103.858 215.937 76.2855 210.127 56.4065" stroke="black" stroke-width="1.2" stroke-linecap="round" stroke-linejoin="round"/>
<path d="M193.382 117.09C190.941 118.05 190.224 120.938 190.624 121.806" stroke="#FFE74D" stroke-width="1.2" stroke-linecap="round" stroke-linejoin="round"/>
<path d="M172.901 169.443C175.154 166.77 179.019 163.779 180.144 163.034" stroke="#FFE74D" stroke-width="1.2" stroke-linecap="round" stroke-linejoin="round"/>
<path d="M109.836 67.228L139.706 81.6861" stroke="white" stroke-width="1.2" stroke-linecap="round" stroke-linejoin="round"/>
<path d="M150.455 112.957L138.67 119.055" stroke="white" stroke-width="1.2" stroke-linecap="round" stroke-linejoin="round"/>
<path d="M138.355 94.1072L69.8555 99.1897H139.706" stroke="white" stroke-width="1.2" stroke-linecap="round" stroke-linejoin="round"/>
<path d="M221.785 101.965L241.268 105.79" stroke="white" stroke-width="1.2" stroke-linecap="round" stroke-linejoin="round"/>
<path d="M225.398 75.2535L255.723 61.1133L226.656 79.0235" stroke="white" stroke-width="1.2" stroke-linecap="round" stroke-linejoin="round"/>
<path d="M235.707 233.995L238.629 231.1L235.016 227.412C232.621 223.162 229.149 219.616 224.95 217.131L221.338 213.443L218.419 216.334C216.433 218.303 218.695 223.854 223.47 228.725C228.245 233.595 233.724 235.964 235.707 233.995Z" fill="#FFE74D" stroke="black" stroke-width="1.2" stroke-linecap="round" stroke-linejoin="round"/>
<path d="M238.618 231.134C240.617 229.182 238.372 223.642 233.605 218.76C228.837 213.878 223.351 211.502 221.353 213.454C219.354 215.406 221.598 220.946 226.366 225.828C231.134 230.711 236.619 233.086 238.618 231.134Z" fill="#FFE74D" stroke="black" stroke-width="1.2" stroke-linecap="round" stroke-linejoin="round"/>
<path d="M156.451 291.465L131.715 288.895C138.551 279.263 143.657 269.412 147 259.842H169.282C167.087 270.274 162.808 281.03 156.451 291.465Z" fill="white" stroke="black" stroke-width="1.2" stroke-linecap="round" stroke-linejoin="round"/>
<path d="M149.348 266.855L161.731 267.146" stroke="black" stroke-width="1.2" stroke-linecap="round" stroke-linejoin="round"/>
<path d="M147.499 271.152L160.111 271.641" stroke="black" stroke-width="1.2" stroke-linecap="round" stroke-linejoin="round"/>
<path d="M145.304 275.698L158.129 276.381" stroke="black" stroke-width="1.2" stroke-linecap="round" stroke-linejoin="round"/>
<path d="M142.717 280.487L155.733 281.409" stroke="black" stroke-width="1.2" stroke-linecap="round" stroke-linejoin="round"/>
<path d="M121.936 253.471L128.727 256.602C128.989 256.723 129.277 256.779 129.565 256.764C129.853 256.749 130.134 256.664 130.382 256.516L136.811 252.698C137.097 252.528 137.425 252.442 137.758 252.448C138.091 252.455 138.415 252.555 138.694 252.736C138.973 252.917 139.196 253.173 139.338 253.475C139.479 253.776 139.533 254.111 139.494 254.441L138.612 261.865C138.579 262.153 138.615 262.444 138.719 262.714C138.822 262.985 138.99 263.226 139.207 263.417L144.826 268.349C145.072 268.57 145.252 268.854 145.346 269.171C145.44 269.488 145.444 269.824 145.358 270.143C145.272 270.462 145.099 270.751 144.858 270.977C144.618 271.204 144.319 271.359 143.996 271.425L136.664 272.881C136.38 272.938 136.114 273.063 135.889 273.245C135.664 273.427 135.487 273.661 135.372 273.927L132.415 280.794C132.284 281.099 132.069 281.361 131.796 281.551C131.523 281.741 131.203 281.851 130.871 281.868C130.539 281.885 130.209 281.81 129.918 281.65C129.627 281.489 129.386 281.251 129.223 280.962L125.569 274.437C125.428 274.184 125.228 273.97 124.985 273.812C124.743 273.654 124.466 273.558 124.178 273.531L116.734 272.847C116.402 272.817 116.086 272.695 115.821 272.494C115.555 272.293 115.351 272.022 115.232 271.712C115.113 271.401 115.083 271.063 115.146 270.737C115.209 270.41 115.362 270.107 115.589 269.863L120.668 264.381C120.864 264.168 121.005 263.911 121.08 263.632C121.155 263.353 121.161 263.06 121.098 262.778L119.454 255.484C119.38 255.16 119.399 254.821 119.507 254.507C119.616 254.192 119.81 253.915 120.069 253.705C120.327 253.496 120.639 253.363 120.969 253.321C121.299 253.28 121.634 253.332 121.936 253.471V253.471Z" fill="#FFE74D" stroke="black" stroke-width="1.2" stroke-linecap="round" stroke-linejoin="round"/>
<path d="M204.576 261.476C198.792 265.436 193.349 269.87 188.303 274.734C177.902 263.656 171.65 250.234 170.427 237C178.941 234.655 187.612 232.628 196.369 230.926C195.703 241.091 198.618 251.817 204.576 261.476Z" fill="white" stroke="black" stroke-width="1.2" stroke-linecap="round" stroke-linejoin="round"/>
<path d="M178.661 245.609C182.892 243.992 187.191 242.473 191.557 241.053" stroke="black" stroke-width="1.2" stroke-linecap="round" stroke-linejoin="round"/>
<path d="M180.458 251.389C184.428 249.546 188.489 247.8 192.64 246.153" stroke="black" stroke-width="1.2" stroke-linecap="round" stroke-linejoin="round"/>
<path d="M182.844 256.995C186.522 254.944 190.315 252.996 194.223 251.15" stroke="black" stroke-width="1.2" stroke-linecap="round" stroke-linejoin="round"/>
<path d="M185.784 262.388C189.14 260.178 192.637 258.053 196.274 256.014" stroke="black" stroke-width="1.2" stroke-linecap="round" stroke-linejoin="round"/>
<path d="M224.749 263.557L230.365 261.554L227.89 254.486C227.359 247.431 224.983 240.639 220.999 234.792L218.525 227.72L212.909 229.723C209.094 231.09 208.65 239.761 211.918 249.106C215.185 258.451 220.931 264.921 224.749 263.557Z" fill="#FFE74D" stroke="black" stroke-width="1.2" stroke-linecap="round" stroke-linejoin="round"/>
<path d="M215.616 233.602L209.812 235.673" stroke="black" stroke-width="1.2" stroke-miterlimit="10"/>
<path d="M215.924 239.515L210.12 241.587" stroke="black" stroke-width="1.2" stroke-miterlimit="10"/>
<path d="M216.692 243.101L210.885 245.172" stroke="black" stroke-width="1.2" stroke-miterlimit="10"/>
<path d="M217.393 245.914L211.586 247.985" stroke="black" stroke-width="1.2" stroke-miterlimit="10"/>
<path d="M230.331 261.597C234.157 260.264 234.617 251.606 231.36 242.258C228.103 232.91 222.361 226.412 218.536 227.745C214.711 229.078 214.25 237.737 217.507 247.085C220.764 256.433 226.506 262.93 230.331 261.597Z" fill="#FFE74D" stroke="black" stroke-width="1.2" stroke-linecap="round" stroke-linejoin="round"/>
<path d="M228.523 256.31C230.708 255.547 230.655 249.701 228.404 243.253C226.154 236.805 222.558 232.196 220.373 232.958C218.188 233.721 218.241 239.567 220.492 246.015C222.742 252.463 226.338 257.072 228.523 256.31Z" stroke="black" stroke-width="1.2" stroke-miterlimit="10"/>
<path d="M226.837 243.784C228.816 249.441 229.107 254.643 227.671 256.359C227.957 256.419 228.253 256.403 228.529 256.311C230.71 255.532 230.649 249.677 228.393 243.227C226.137 236.777 222.541 232.187 220.36 232.973C220.091 233.079 219.855 233.255 219.677 233.482C221.84 233.896 224.858 238.124 226.837 243.784Z" fill="black"/>
<path d="M195.645 281.697C193.83 277.78 189.783 274.28 184.471 272.547C179.16 270.814 173.828 271.258 170.054 273.35L167.214 272.424L165.231 278.918C163.181 285.238 168.444 292.624 177.01 295.42C185.575 298.216 194.189 295.355 196.25 289.035L198.232 282.541L195.645 281.697Z" fill="#FFE74D" stroke="black" stroke-width="1.2" stroke-linecap="round" stroke-linejoin="round"/>
<path d="M198.222 282.516C200.282 276.196 195.009 268.809 186.442 266.016C177.876 263.223 169.262 266.081 167.201 272.4C165.141 278.72 170.414 286.107 178.981 288.9C187.547 291.693 196.161 288.835 198.222 282.516Z" fill="#FFE74D" stroke="black" stroke-width="1.2" stroke-linecap="round" stroke-linejoin="round"/>
<path d="M193.25 280.895C194.53 276.969 190.849 272.249 185.029 270.351C179.209 268.453 173.453 270.097 172.173 274.022C170.893 277.947 174.574 282.667 180.394 284.565C186.214 286.463 191.97 284.82 193.25 280.895Z" stroke="black" stroke-width="1.2" stroke-linecap="round" stroke-linejoin="round"/>
<path d="M185.039 270.373C179.228 268.476 173.465 270.12 172.184 274.044C172.032 274.517 171.948 275.009 171.934 275.506C173.698 272.177 179.04 270.885 184.441 272.646C189.55 274.314 193.006 278.155 192.907 281.724C193.044 281.465 193.159 281.195 193.249 280.917C194.537 276.993 190.86 272.273 185.039 270.373Z" fill="black"/>
<path d="M185.64 289.992L183.661 296.5" stroke="black" stroke-width="1.2" stroke-linecap="round" stroke-linejoin="round"/>
<path d="M178.763 289.076L176.846 295.375" stroke="black" stroke-width="1.2" stroke-linecap="round" stroke-linejoin="round"/>
<path d="M175.109 287.405L173.171 293.762" stroke="black" stroke-width="1.2" stroke-linecap="round" stroke-linejoin="round"/>
<path d="M202.757 264.094C203.32 268.662 205.407 272.907 208.681 276.142L209.258 268.999C210.06 269.22 210.88 269.365 211.709 269.433C213.745 269.588 215.79 269.292 217.697 268.565C213.682 267.63 210.114 265.336 207.597 262.071L202.757 264.094Z" fill="black" stroke="black" stroke-width="1.2" stroke-linecap="round" stroke-linejoin="round"/>
<path d="M206.753 253.826C204.846 249.916 201.482 247.445 198.427 247.373L198.157 246.819L195.99 247.875C192.483 249.584 191.611 255.023 194.045 260.02C196.478 265.017 201.298 267.676 204.808 265.967L206.975 264.911L206.705 264.36C208.53 261.906 208.657 257.736 206.753 253.826Z" fill="#FFE74D" stroke="black" stroke-width="1.2" stroke-linecap="round" stroke-linejoin="round"/>
<path d="M206.975 264.914C210.484 263.204 211.355 257.767 208.921 252.772C206.486 247.776 201.668 245.112 198.159 246.822C194.65 248.532 193.778 253.969 196.213 258.964C198.647 263.96 203.465 266.624 206.975 264.914Z" fill="#FFE74D" stroke="black" stroke-width="1.2" stroke-linecap="round" stroke-linejoin="round"/>
</g>
<defs>
<clipPath id="clip0_3342_9683">
<rect width="368" height="297.99" fill="white"/>
</clipPath>
</defs>
</svg>
